HIERARCHY
ROOT Hips
{
	OFFSET	0.00	0.00	0.00
	CHANNELS 6 Xposition Yposition Zposition Zrotation Xrotation Yrotation
	JOINT LeftUpLeg
	{
		OFFSET	 0.126116	-0.014019	-0.065224
		CHANNELS 3 Zrotation Xrotation Yrotation
		JOINT LeftLeg
		{
			OFFSET	 0.000000	 0.000000	 0.569914
			CHANNELS 3 Zrotation Xrotation Yrotation
			JOINT LeftFoot
			{
				OFFSET	 0.000000	 0.000000	 0.544423
				CHANNELS 3 Zrotation Xrotation Yrotation
				JOINT LeftToeBase
				{
					OFFSET	 0.000000	 0.000000	 0.207117
					CHANNELS 3 Zrotation Xrotation Yrotation
					End Site
					{
						OFFSET	 0.000000	 0.000000	 0.207117
					}
				}
			}
		}
	}
	JOINT RightUpLeg
	{
		OFFSET	-0.124023	-0.008373	-0.065224
		CHANNELS 3 Zrotation Xrotation Yrotation
		JOINT RightLeg
		{
			OFFSET	 0.000000	 0.000000	 0.570047
			CHANNELS 3 Zrotation Xrotation Yrotation
			JOINT RightFoot
			{
				OFFSET	 0.000000	 0.000000	 0.544354
				CHANNELS 3 Zrotation Xrotation Yrotation
				JOINT RightToeBase
				{
					OFFSET	 0.000000	 0.000000	 0.207540
					CHANNELS 3 Zrotation Xrotation Yrotation
					End Site
					{
						OFFSET	 0.000000	 0.000000	 0.207540
					}
				}
			}
		}
	}
	JOINT Spine
	{
		OFFSET	 0.000184	-0.007763	 0.117403
		CHANNELS 3 Zrotation Xrotation Yrotation
		JOINT Spine1
		{
			OFFSET	 0.000000	 0.000000	 0.137269
			CHANNELS 3 Zrotation Xrotation Yrotation
			JOINT Spine2
			{
				OFFSET	 0.000000	 0.000000	 0.156879
				CHANNELS 3 Zrotation Xrotation Yrotation
				JOINT LeftShoulder
				{
					OFFSET	 0.080501	-0.002496	 0.160144
					CHANNELS 3 Zrotation Xrotation Yrotation
					JOINT LeftArm
					{
						OFFSET	 0.000000	 0.000000	 0.164363
						CHANNELS 3 Zrotation Xrotation Yrotation
						JOINT LeftForeArm
						{
							OFFSET	 0.000000	 0.000000	 0.364576
							CHANNELS 3 Zrotation Xrotation Yrotation
							JOINT LeftHand
							{
								OFFSET	 0.000000	 0.000000	 0.360812
								CHANNELS 3 Zrotation Xrotation Yrotation
								JOINT LeftHandIndex1
								{
									OFFSET	 0.000000	 0.000000	 0.086006
									CHANNELS 3 Zrotation Xrotation Yrotation
									JOINT LeftHandIndex2
									{
										OFFSET	 0.000000	 0.000000	 0.047236
										CHANNELS 3 Zrotation Xrotation Yrotation
										JOINT LeftHandIndex3
										{
											OFFSET	-0.004284	-0.000551	 0.038166
											CHANNELS 3 Zrotation Xrotation Yrotation
											End Site
											{
												OFFSET	-0.004284	-0.000551	 0.038166
											}
										}
									}
								}
							}
						}
					}
				}
				JOINT Neck
				{
					OFFSET	 0.000000	 0.000000	 0.176489
					CHANNELS 3 Zrotation Xrotation Yrotation
					JOINT Head
					{
						OFFSET	 0.000000	-0.001747	 0.077940
						CHANNELS 3 Zrotation Xrotation Yrotation
						End Site
						{
							OFFSET	 0.000000	-0.001747	 0.077940
						}
					}
				}
				JOINT RightShoulder
				{
					OFFSET	-0.080363	 0.000306	 0.159706
					CHANNELS 3 Zrotation Xrotation Yrotation
					JOINT RightArm
					{
						OFFSET	 0.000000	 0.000000	 0.164196
						CHANNELS 3 Zrotation Xrotation Yrotation
						JOINT RightForeArm
						{
							OFFSET	 0.000000	 0.000000	 0.365611
							CHANNELS 3 Zrotation Xrotation Yrotation
							JOINT RightHand
							{
								OFFSET	 0.000000	 0.000000	 0.360648
								CHANNELS 3 Zrotation Xrotation Yrotation
								JOINT RightHandIndex1
								{
									OFFSET	 0.000000	 0.000000	 0.069977
									CHANNELS 3 Zrotation Xrotation Yrotation
									JOINT RightHandIndex2
									{
										OFFSET	 0.000000	 0.000000	 0.052305
										CHANNELS 3 Zrotation Xrotation Yrotation
										JOINT RightHandIndex3
										{
											OFFSET	 0.009002	-0.000782	 0.042196
											CHANNELS 3 Zrotation Xrotation Yrotation
											End Site
											{
												OFFSET	 0.009002	-0.000782	 0.042196
											}
										}
									}
								}
							}
						}
					}
				}
			}
		}
	}
}
MOTION
Frames:    12
Frame Time: 0.03333334
-1.060514	 1.457877	-0.578942	-23.453610	-0.000008	-0.000005	 4.117190	-1.743456	 179.873500	 3.144682	-11.594540	 1.749894	 4.431011	 71.402240	 1.145402	-2.385833	 28.452760	 0.000004	-4.119452	-2.154259	-179.893100	-3.138409	-11.963990	-1.790670	-4.423576	 71.426400	-1.178366	 2.384659	 28.388700	-0.000001	-2.323674	 2.730960	 0.068420	-3.864222	-1.738179	-0.313943	-4.638610	-2.083051	-0.390800	-91.776180	 78.527400	-180.000000	 12.108080	-5.220968	-1.016091	-4.393921	-0.889003	-0.368781	-18.166120	-0.205501	-4.068540	-3.812334	 37.924440	-2.927599	-2.450526	 36.184240	 0.754587	-1.378229	 35.397820	-2.634230	 0.000023	-3.783169	-0.089619	-1.141507	 1.213390	 0.012090	 89.782120	 78.203870	 180.000000	-12.512960	-5.961348	 1.072667	 4.635296	-0.427195	 0.526664	 18.480990	-1.326622	 8.278540	 6.437017	 35.671460	-0.771858	 2.830251	 35.756010	-7.813440	-2.350882	 35.473990	 5.254307
-1.065444	 1.464494	-0.580884	 69.437670	 3.941808	-0.885006	 9.937189	 17.010670	-176.335300	-6.123035	-11.623720	 1.541650	-20.935200	 89.260600	 24.421080	-2.299028	 39.915110	-0.273357	 3.964183	-45.829690	 179.397000	-0.764983	-44.660470	 3.242611	-177.337500	 83.383810	-178.635200	 2.405875	 20.626410	-0.160641	-4.320994	 2.113032	 2.735825	-6.592397	-5.278772	 0.680716	-7.575304	-9.130422	-1.728942	-91.776180	 78.527400	 180.000000	 44.261920	 63.344760	-59.548280	-6.973545	-4.983354	-28.739620	 5.353155	-2.103700	-5.366268	-3.812334	 37.924440	-2.927599	-2.450526	 36.184240	 0.754587	-1.378229	 35.397820	-2.634230	-0.132053	 4.955771	-2.341405	-1.777537	-23.729010	-3.344973	 89.782120	 78.203870	 180.000000	-34.490670	 74.674960	 38.343270	 3.929369	-7.085400	 20.794820	-15.129560	-3.276736	 9.543544	 6.437017	 35.671460	-0.771858	 2.830251	 35.756010	-7.813440	-2.350882	 35.473990	 5.254307
-1.060376	 1.464560	-0.582824	 67.371350	 3.994356	-0.789798	 9.859467	 17.174460	-176.312100	-6.071957	-11.623960	 1.539777	-19.127820	 89.231280	 22.603450	-2.296710	 40.119680	-0.278839	 4.103398	-45.842370	 179.558400	-0.813629	-43.452320	 3.168446	-177.259800	 83.517500	-178.624200	 2.404485	 21.652750	-0.140093	-4.341305	 2.187453	 2.749591	-6.609477	-5.114140	 0.678737	-7.588150	-8.933994	-1.724069	-91.776180	 78.527400	 180.000000	 41.500510	 62.058120	-56.725690	-6.730492	-4.583215	-27.807320	 4.762634	-2.104978	-5.365920	-3.812334	 37.924440	-2.927599	-2.450526	 36.184240	 0.754587	-1.378229	 35.397820	-2.634230	-0.158311	 4.746140	-2.346391	-1.769946	-23.136790	-3.305152	 89.782090	 78.203830	-180.000000	-31.316880	 72.909040	 35.375190	 3.912773	-6.574021	 20.199930	-14.242550	-3.278458	 9.542312	 6.437017	 35.671460	-0.771858	 2.830251	 35.756010	-7.813440	-2.350882	 35.473990	 5.254307
-1.056656	 1.463178	-0.584365	 67.457480	 4.003769	-0.840145	 9.786824	 17.337490	-176.296900	-6.021422	-11.624170	 1.538179	-17.506270	 89.200830	 20.972940	-2.293607	 40.387600	-0.286067	 4.207654	-45.873470	 179.680200	-0.738998	-43.210220	 3.244540	-177.124000	 83.663180	-178.651400	 2.402431	 22.803780	-0.116842	-4.357155	 2.197345	 2.754140	-6.625969	-5.136821	 0.672640	-7.576523	-8.936764	-1.734952	-91.776180	 78.527400	 180.000000	 41.639400	 62.082500	-56.853670	-6.667581	-4.585295	-27.629750	 4.812002	-2.106329	-5.365507	-3.812334	 37.924440	-2.927599	-2.450526	 36.184240	 0.754587	-1.378229	 35.397820	-2.634230	-0.172253	 4.820431	-2.360849	-1.783776	-23.231190	-3.298793	 89.782090	 78.203830	-180.000000	-31.039280	 72.964940	 34.979960	 3.926501	-6.557540	 20.110020	-14.266400	-3.278889	 9.542012	 6.437017	 35.671460	-0.771858	 2.830251	 35.756010	-7.813440	-2.350882	 35.473990	 5.254307
-1.051957	 1.461414	-0.585782	 67.576790	 4.020841	-0.899088	 9.699140	 17.540410	-176.283000	-5.957720	-11.624420	 1.536477	-15.638170	 89.161400	 19.095190	-2.289631	 40.724860	-0.295237	 4.308268	-45.881200	 179.825500	-0.625032	-42.946670	 3.341179	-176.936700	 83.847920	-178.704300	 2.399547	 24.076600	-0.090841	-4.380368	 2.193251	 2.756738	-6.651564	-5.157990	 0.658679	-7.578570	-8.936548	-1.747148	-91.776180	 78.527400	-180.000000	 41.826400	 62.116060	-57.044210	-6.595366	-4.587128	-27.403890	 4.873998	-2.108242	-5.365035	-3.812334	 37.924440	-2.927599	-2.450526	 36.184240	 0.754587	-1.378229	 35.397820	-2.634230	-0.192286	 4.890407	-2.363141	-1.801858	-23.329600	-3.301082	 89.782090	 78.203830	-180.000000	-30.788490	 73.023280	 34.602090	 3.924921	-6.538171	 20.001050	-14.297180	-3.279540	 9.541482	 6.437017	 35.671460	-0.771858	 2.830251	 35.756010	-7.813440	-2.350882	 35.473990	 5.254307
-1.013007	 1.445857	-0.587309	 68.504990	 4.203809	-1.226611	 9.125531	 19.205100	-176.428200	-5.389237	-11.624220	 1.538321	-3.953169	 88.635280	 7.419142	-2.256615	 43.263480	-0.366862	 4.806760	-45.458260	-179.251300	 0.146362	-42.073300	 3.980664	-175.682700	 85.441430	-179.194300	 2.378238	 29.742040	 0.029548	-4.594602	 1.995481	 2.654876	-6.881958	-5.212544	 0.480775	-7.714158	-8.860303	-1.825689	-91.776180	 78.527400	 180.000000	 43.355300	 62.645590	-58.608760	-6.235638	-4.574881	-25.479270	 5.383885	-2.126886	-5.359774	-3.812334	 37.924440	-2.927599	-2.450526	 36.184240	 0.754587	-1.378229	 35.397820	-2.634230	-0.372096	 5.183320	-2.297002	-1.941557	-23.709260	-3.328711	 89.782120	 78.203870	 180.000000	-29.733470	 73.464420	 32.894400	 3.852629	-6.416882	 19.232220	-14.568030	-3.290182	 9.533748	 6.437017	 35.671460	-0.771858	 2.830251	 35.756010	-7.813440	-2.350882	 35.473990	 5.254307
-0.973151	 1.428782	-0.589777	 69.188160	 4.413866	-1.412711	 8.721287	 20.868810	-176.863800	-4.743885	-11.621130	 1.561860	 2.235601	 87.426250	 1.379479	-2.210870	 46.198570	-0.456335	 5.251497	-44.717520	-178.604800	 0.847398	-42.700430	 4.735642	-175.524200	 87.055890	-178.761000	 2.379064	 29.577410	 0.025924	-4.792340	 1.752710	 2.415404	-7.057765	-5.319803	 0.272791	-7.754285	-8.778501	-1.896498	-91.776180	 78.527380	-180.000000	 44.569630	 63.629050	-59.496710	-6.212581	-4.525200	-23.538130	 5.893141	-2.151151	-5.352244	-3.812334	 37.924440	-2.927599	-2.450526	 36.184240	 0.754587	-1.378229	 35.397820	-2.634230	-0.534568	 5.124694	-2.238439	-2.040250	-23.600230	-3.201565	 89.782090	 78.203830	-180.000000	-28.503160	 73.984140	 31.155210	 3.950885	-6.332173	 18.627900	-14.827950	-3.302054	 9.524113	 6.437017	 35.671460	-0.771858	 2.830251	 35.756010	-7.813440	-2.350882	 35.473990	 5.254307
-0.925818	 1.407609	-0.590243	 69.769170	 4.500560	-1.477616	 8.455075	 22.748180	-177.671600	-3.909475	-11.613980	 1.614731	 4.644806	 84.713940	-0.650446	-2.135921	 50.048720	-0.587309	 5.033796	-43.589020	-178.623600	 3.499113	-44.361440	 6.722481	-178.421500	 89.940660	-174.362700	 2.376934	 29.995870	 0.035154	-5.016511	 1.474308	 1.875903	-7.184296	-5.526638	 0.048284	-7.662907	-8.792340	-1.979390	-91.776180	 78.527400	-180.000000	 45.285540	 65.266330	-59.240030	-6.545133	-4.442113	-21.457530	 6.465034	-2.185193	-5.340799	-3.812334	 37.924440	-2.927599	-2.450526	 36.184240	 0.754587	-1.378229	 35.397820	-2.634230	-0.710923	 4.881622	-2.123811	-2.127904	-23.190300	-2.949283	 89.782120	 78.203930	 180.000000	-26.888870	 74.549100	 28.930410	 4.140935	-6.250239	 18.091780	-15.053580	-3.312895	 9.515380	 6.437017	 35.671460	-0.771858	 2.830251	 35.756010	-7.813440	-2.350882	 35.473990	 5.254307
-0.855956	 1.375434	-0.586116	 70.080060	 4.349757	-1.313864	 8.659076	 25.332750	-179.050400	-3.129282	-11.601610	 1.702094	 4.833657	 77.449370	 0.039733	-2.057617	 53.241030	-0.711035	 3.782670	-41.834740	-179.619400	 6.538734	-46.845470	 8.714673	 4.882849	 86.541530	 3.381395	 2.372306	 30.849280	 0.054163	-4.921441	 0.873610	 0.887552	-6.978197	-5.783512	-0.296510	-7.607576	-8.869611	-1.836997	-91.776180	 78.527380	-180.000000	 44.671150	 68.253590	-56.558660	-7.863309	-4.257201	-19.117430	 6.991448	-2.229506	-5.324774	-3.812334	 37.924440	-2.927599	-2.450526	 36.184240	 0.754587	-1.378229	 35.397820	-2.634230	-0.944256	 4.755107	-1.916207	-2.198053	-22.762390	-2.461005	 89.782120	 78.203870	 180.000000	-24.683770	 75.172630	 25.903020	 4.433538	-6.153899	 17.580860	-15.226600	-3.321416	 9.509212	 6.437017	 35.671460	-0.771858	 2.830251	 35.756010	-7.813440	-2.350882	 35.473990	 5.254307
-0.828161	 1.362095	-0.583411	 70.131520	 4.317942	-1.341955	 8.848858	 26.232090	-179.473500	-3.203116	-11.602860	 1.693230	 4.293478	 73.375370	 0.852552	-2.065697	 52.941730	-0.698734	 3.564211	-41.011260	-179.950600	 6.287930	-47.683530	 8.568342	 4.932535	 85.915290	 2.916273	 2.375149	 30.332870	 0.042630	-4.741436	 0.442230	 0.713433	-6.804963	-5.826280	-0.385143	-7.639316	-8.790340	-1.708048	-91.776180	 78.527400	 180.000000	 43.827310	 69.438670	-54.696800	-8.594731	-4.155432	-18.512680	 6.986273	-2.241194	-5.321181	-3.812334	 37.924440	-2.927599	-2.450526	 36.184240	 0.754587	-1.378229	 35.397820	-2.634230	-0.972488	 4.720738	-1.879366	-2.188578	-22.532490	-2.316582	 89.782120	 78.203870	 180.000000	-24.302140	 75.336300	 25.358850	 4.477479	-6.136306	 17.455070	-15.289530	-3.324937	 9.506330	 6.437017	 35.671460	-0.771858	 2.830251	 35.756010	-7.813440	-2.350882	 35.473990	 5.254307
-0.774122	 1.335892	-0.576760	 70.304410	 4.208251	-1.430566	 9.150126	 27.843740	 179.678400	-3.858622	-11.622620	 1.549564	 3.941189	 63.768020	 1.137816	-2.074331	 52.614920	-0.685480	 3.249733	-38.590200	 179.518700	 5.840146	-48.778740	 8.271397	 4.925787	 85.657780	 2.332277	 2.386998	 27.842520	-0.011773	-4.473283	-0.078353	 0.569120	-6.525297	-5.782514	-0.504812	-7.501208	-8.383389	-1.534936	-91.776180	 78.527400	 180.000000	 41.265490	 71.299130	-49.633440	-9.905336	-3.940689	-17.982880	 6.589477	-2.252280	-5.320614	-3.812334	 37.924440	-2.927599	-2.450526	 36.184240	 0.754587	-1.378229	 35.397820	-2.634230	-0.961874	 4.658692	-1.863415	-2.149917	-21.698590	-2.079674	 89.782120	 78.203870	 180.000000	-24.116470	 75.480260	 24.954750	 4.414217	-6.130996	 17.332070	-15.388060	-3.329030	 9.502437	 6.437017	 35.671460	-0.771858	 2.830251	 35.756010	-7.813440	-2.350882	 35.473990	 5.254307
-0.730109	 1.311007	-0.567688	 70.656900	 3.510104	-1.340794	 7.104826	 22.884490	 178.518500	-3.452506	-24.206660	 0.908427	 2.099223	 58.636230	 0.312533	-2.116659	 50.898800	-0.618752	 2.626945	-35.305770	 178.838200	 5.770194	-49.099960	 7.930071	 5.219709	 86.741110	 1.702085	 2.396410	 25.214110	-0.067308	-4.534041	 0.275837	 0.349513	-6.465802	-5.614889	-0.604955	-7.059050	-7.841984	-1.563656	-91.776180	 78.527400	-180.000000	 38.292690	 72.048730	-44.016970	-10.342660	-3.811549	-18.126850	 6.115710	-2.251817	-5.323847	-3.812334	 37.924440	-2.927599	-2.450526	 36.184240	 0.754587	-1.378229	 35.397820	-2.634230	-0.997509	 4.603981	-1.803080	-2.190149	-20.481910	-2.001699	 89.782090	 78.203830	-180.000000	-24.373770	 75.365720	 24.993790	 4.381305	-6.193533	 17.704080	-15.232950	-3.322366	 9.507941	 6.437017	 35.671460	-0.771858	 2.830251	 35.756010	-7.813440	-2.350882	 35.473990	 5.254307
